<svg width="175" height="72" viewBox="0 0 175 72" fill="none" xmlns="http://www.w3.org/2000/svg">
<g clip-path="url(#clip0_5_689)">
<path d="M102.984 42.9714C100.444 42.9714 98.9968 45.054 98.9968 47.6952C98.9968 50.3365 100.292 52.3175 102.984 52.3175C104.965 52.3175 106.311 51.3016 106.59 49.7778H105.143C104.965 50.2857 104.584 51.1746 103.111 51.1746C101.41 51.1746 100.698 49.9302 100.571 48.0762H106.717V47.2889C106.717 45.054 105.651 42.9714 102.984 42.9714ZM105.194 46.8571H100.622C100.8 45.2318 101.587 44.0889 102.984 44.0889C104.559 44.0889 105.117 45.2064 105.168 46.7302V46.8571H105.194ZM81.1936 39.1365L76.5714 52.0889H78.146L79.492 48.254H84.673L86.019 52.0889H87.7206L83.0476 39.1365H81.1936ZM80.0254 46.9079L81.6508 42.2857C81.8286 41.6 82.0571 40.8127 82.1079 40.7111C82.1587 40.7111 82.3873 41.5492 82.6667 42.2857L84.292 46.9079H80.0254ZM95.3905 44.5968H95.3397C94.9333 43.7587 94.0952 42.9714 92.6476 42.9714C90.4635 42.9714 88.8635 44.546 88.8635 47.5429C88.8635 50.8698 90.5651 51.9873 92.419 51.9873C93.7651 51.9873 94.7809 51.2508 95.2889 50.3619V51.6571C95.2889 53.6381 94.4508 54.2476 92.7492 54.2476C91.2762 54.2476 90.7174 53.7397 90.5651 53.0032H89.092C89.3206 54.8571 91.073 55.4921 92.8 55.4921C95.2127 55.4921 96.8635 54.4254 96.8635 51.8857V43.2254H95.3905V44.5968ZM95.3905 48.0254C95.3905 49.5492 94.3746 50.7937 92.9016 50.7937C91.0476 50.7937 90.4889 49.4476 90.4889 47.4667C90.4889 45.4349 91.2762 44.1397 92.8508 44.1397C94.3746 44.1397 95.3905 45.3841 95.3905 47.1365V48.0254ZM119.721 47.6444C119.721 49.6762 120.33 51.1238 122.133 51.1238C123.835 51.1238 124.267 49.8794 124.317 49.2191H125.714C125.486 51.2508 124.013 52.3175 122.108 52.3175C119.568 52.3175 118.171 50.5143 118.171 47.6952C118.171 44.927 119.644 42.9714 122.159 42.9714C123.962 42.9714 125.536 43.8095 125.714 45.8921H124.19C124.089 45.0032 123.454 44.1397 122.159 44.1397C120.559 44.1397 119.721 45.5619 119.721 47.6444ZM127.873 39.5429H129.498V41.1683H127.873V39.5429ZM127.873 43.2H129.397V52.0889H127.873V43.2ZM135.594 42.9714C133.054 42.9714 131.606 45.054 131.606 47.6952C131.606 50.3365 132.902 52.3175 135.594 52.3175C137.575 52.3175 138.921 51.3016 139.2 49.7778H137.727C137.549 50.2857 137.168 51.1746 135.695 51.1746C133.994 51.1746 133.283 49.9302 133.156 48.0762H139.302V47.2889C139.327 45.054 138.235 42.9714 135.594 42.9714ZM137.803 46.8571H133.232C133.41 45.2318 134.197 44.0889 135.594 44.0889C137.168 44.0889 137.727 45.2064 137.778 46.7302V46.8571H137.803ZM147.759 49.6762C147.759 51.4794 146.286 52.4444 144.279 52.4444C142.425 52.4444 140.902 51.6064 140.8 49.6762H142.273C142.324 50.3619 142.73 51.2508 144.305 51.2508C145.498 51.2508 146.286 50.6921 146.286 49.727C146.286 49.0413 146.108 48.6603 144.889 48.4317L143.543 48.2032C141.968 47.9238 141.13 47.3143 141.13 45.7143C141.13 44.1397 142.324 43.0222 144.33 43.0222C146.235 43.0222 147.327 43.8603 147.479 45.4349H146.083C146.032 44.6476 145.397 44.1397 144.33 44.1397C143.263 44.1397 142.578 44.7492 142.578 45.6127C142.578 46.3492 143.035 46.6794 143.924 46.8571L145.27 47.0857C147.098 47.3651 147.759 48.1524 147.759 49.6762ZM116.063 45.8921V52.0889H114.54L114.59 46.6286C114.59 45.9429 114.59 45.2825 114.26 44.8254C113.981 44.3683 113.422 44.2159 112.863 44.2159C111.238 44.2159 110.451 45.2825 110.451 46.7556V52.1143H108.927V43.2254H110.324V44.7492H110.375C110.781 43.7841 111.848 42.9968 113.244 42.9968C114.921 42.9714 116.063 43.7587 116.063 45.8921ZM108.063 30.4C107.886 30.9079 107.505 31.7968 106.032 31.7968C104.33 31.7968 103.619 30.5524 103.492 28.6984H109.638V27.9365C109.638 25.6762 108.571 23.5937 105.93 23.5937C103.39 23.5937 101.943 25.6762 101.943 28.3175C101.943 30.9587 103.238 32.9397 105.93 32.9397C107.911 32.9397 109.206 31.9238 109.536 30.4H108.063ZM105.879 24.7111C107.454 24.7111 108.013 25.8286 108.063 27.3524V27.454H103.492C103.67 25.854 104.457 24.7111 105.879 24.7111ZM77.7143 19.8095H79.2889V32.7619H77.7143V19.8095ZM125.283 32.9397C127.263 32.9397 128.559 31.9238 128.889 30.4H127.416C127.238 30.9079 126.857 31.7968 125.384 31.7968C123.683 31.7968 122.971 30.5524 122.844 28.6984H129.016V27.9365C129.016 25.6762 127.949 23.5937 125.308 23.5937C122.768 23.5937 121.321 25.6762 121.321 28.3175C121.321 30.9587 122.59 32.9397 125.283 32.9397ZM125.232 24.7111C126.806 24.7111 127.365 25.8286 127.416 27.3524V27.454H122.844C123.048 25.854 123.835 24.7111 125.232 24.7111ZM154.641 23.5937C152.102 23.5937 150.654 25.6762 150.654 28.3175C150.654 30.9587 151.949 32.9397 154.641 32.9397C156.622 32.9397 157.917 31.9238 158.248 30.4H156.775C156.597 30.9079 156.216 31.7968 154.743 31.7968C153.041 31.7968 152.33 30.5524 152.203 28.6984H158.349V27.9365C158.349 25.6762 157.283 23.5937 154.641 23.5937ZM156.775 27.4794H152.203C152.381 25.854 153.168 24.7111 154.565 24.7111C156.14 24.7111 156.698 25.8286 156.749 27.3524V27.4794H156.775ZM167.695 26.5905V32.7619H166.171L166.222 27.2508C166.222 26.5651 166.222 25.9048 165.892 25.4476C165.613 25.0413 165.054 24.8889 164.495 24.8889C162.87 24.8889 162.083 25.9556 162.083 27.4286V32.7619H160.559V23.873H161.956V25.3968H162.006C162.413 24.4317 163.479 23.6444 164.876 23.6444C166.578 23.6444 167.695 24.4317 167.695 26.5905ZM146.921 19.4286V25.1683H146.87C146.54 24.3302 145.625 23.5937 144.33 23.5937C142.07 23.5937 140.495 25.2952 140.495 28.3175C140.495 31.746 142.248 32.9397 144.152 32.9397C145.498 32.9397 146.463 32.1524 146.971 31.2381H147.022V32.7111H148.495L148.444 19.4286H146.921ZM146.921 28.8762C146.921 30.5016 145.956 31.746 144.381 31.746C142.629 31.746 142.019 30.273 142.019 28.2667C142.019 26.1841 142.806 24.8381 144.508 24.8381C145.905 24.8381 146.921 26.0825 146.921 27.9365V28.8762ZM132.724 32.7619H131.2V23.873H132.597V25.3968H132.648C133.054 24.4317 134.121 23.6444 135.517 23.6444C137.219 23.6444 138.337 24.4317 138.337 26.5651V32.7619H136.813L136.863 27.2508C136.863 26.5651 136.863 25.9048 136.533 25.4476C136.254 25.0413 135.695 24.8889 135.136 24.8889C133.511 24.8889 132.724 25.9556 132.724 27.4286V32.7619ZM99.7841 32.7111L99.7333 19.4286H98.2095V25.1683H98.1587C97.8286 24.3302 96.9143 23.5937 95.619 23.5937C93.3587 23.5937 91.7841 25.2952 91.7841 28.3175C91.7841 31.746 93.5365 32.9397 95.4413 32.9397C96.7873 32.9397 97.7524 32.1524 98.2603 31.2381H98.3111V32.7111H99.7841ZM98.2603 28.8762C98.2603 30.5016 97.2952 31.746 95.7206 31.746C93.9682 31.746 93.3587 30.273 93.3587 28.2667C93.3587 26.1841 94.146 24.8381 95.8476 24.8381C97.2444 24.8381 98.2603 26.0825 98.2603 27.9365V28.8762ZM89.6508 32.7619H88.127L88.0762 27.2508C88.0762 26.5651 88.0762 25.9048 87.746 25.4476C87.4159 25.0413 86.9587 24.8889 86.3492 24.8889C84.7238 24.8889 83.9365 25.9556 83.9365 27.4286V32.7619H82.4127V23.873H83.8857V25.3968H83.9365C84.3428 24.4317 85.4095 23.6444 86.8063 23.6444C88.5587 23.6444 89.6762 24.4317 89.6762 26.5651V32.7619H89.6508ZM119.721 28.1651C119.721 24.7873 118.019 23.5937 116.114 23.5937C114.768 23.5937 113.803 24.3302 113.295 25.2952H113.244V23.8222H111.771V35.9365H113.295V31.4413H113.346C113.676 32.2286 114.743 32.9651 116.038 32.9651C118.095 32.9397 119.721 31.3651 119.721 28.1651ZM115.784 31.7714C114.159 31.7714 113.244 30.3746 113.244 28.6222V27.6571C113.244 26.1333 114.21 24.8381 115.784 24.8381C117.587 24.8381 118.146 26.2349 118.146 28.1651C118.146 30.4762 117.359 31.7714 115.784 31.7714ZM174.781 31.4159V32.7111C174.781 32.7111 174.171 32.8127 173.384 32.8127C171.632 32.8127 170.971 31.9746 170.971 30.4508V24.9397H169.346V23.8222H169.625C170.819 23.8222 171.098 23.5429 171.098 21.8413V21.2317H172.495V23.8222H174.679V25.0159H172.495V30.2476C172.495 31.1365 172.902 31.5429 173.841 31.5429C174.273 31.5429 174.781 31.4159 174.781 31.4159ZM113.854 13.4095H112.33V4.52064H113.727V6.04444H113.778C114.184 5.07937 115.251 4.29206 116.648 4.29206C118.349 4.29206 119.467 5.07937 119.467 7.2127V13.4095H117.943L117.994 7.94921C117.994 7.26349 117.994 6.60318 117.663 6.14603C117.384 5.68889 116.825 5.53651 116.267 5.53651C114.641 5.53651 113.854 6.60317 113.854 8.07619V13.4095ZM121.575 8.96508C121.575 6.19683 123.098 4.24127 125.562 4.24127C127.365 4.24127 128.94 5.07937 129.117 7.16191H127.594C127.492 6.27302 126.857 5.40952 125.562 5.40952C123.936 5.40952 123.073 6.80635 123.073 8.88889C123.073 10.9714 123.683 12.3683 125.486 12.3683C127.187 12.3683 127.619 11.1238 127.67 10.4635H129.067C128.838 12.4952 127.365 13.5619 125.46 13.5619C122.997 13.5619 121.575 11.7587 121.575 8.96508ZM148.165 13.6381C150.705 13.6381 152.152 11.7333 152.152 8.96508C152.152 6.19683 150.857 4.29206 148.165 4.29206C145.676 4.29206 144.178 6.19683 144.178 8.96508C144.152 11.7079 145.498 13.6381 148.165 13.6381ZM148.165 5.40952C149.867 5.40952 150.578 6.75556 150.578 8.88889C150.578 11.073 149.841 12.3683 148.216 12.3683C146.463 12.3683 145.727 11.073 145.727 8.88889C145.727 6.75556 146.514 5.40952 148.165 5.40952ZM157.46 0C157.79 0 158.146 0.0507937 158.425 0.101587V1.29524C158.248 1.29524 157.968 1.24444 157.587 1.24444C156.749 1.24444 156.292 1.5746 156.292 2.64127V4.49524H158.425V5.6127H156.292V13.3841H154.768V5.6381H153.143V4.44444H154.768V2.48889C154.743 0.609524 155.81 0 157.46 0ZM91.0476 13.4095H89.5238V0.0507937H91.0476V13.4095ZM79.5682 9.52381H84.7492L86.0444 13.4095H87.746L83.1238 0.457143H81.2698L76.6476 13.4095H78.2222L79.5682 9.52381ZM81.6508 3.65714C81.8286 2.92063 82.0571 2.08254 82.1079 2.03175C82.1587 2.03175 82.3873 2.86984 82.6667 3.65714L84.292 8.27937H80L81.6508 3.65714ZM134.578 13.5619C136.559 13.6127 137.854 12.5968 138.184 11.0222H136.711C136.533 11.5302 136.152 12.419 134.679 12.419C132.978 12.419 132.267 11.1746 132.14 9.32064H138.286V8.53333C138.286 6.27302 137.219 4.19048 134.578 4.19048C132.038 4.19048 130.59 6.27302 130.59 8.91429C130.59 11.6063 131.886 13.5619 134.578 13.5619ZM134.527 5.40952C136.102 5.40952 136.66 6.52698 136.711 8.05079V8.15238H132.14C132.343 6.52698 133.13 5.40952 134.527 5.40952ZM103.619 8.7873C102.73 9.24444 102.273 10.0317 102.273 11.0476C102.273 12.6222 103.34 13.5873 105.092 13.5873C106.387 13.5873 107.454 12.9778 107.962 11.9619H108.013C108.19 13.0286 108.622 13.5365 110.044 13.5365H110.222V12.2921C109.536 12.2921 109.435 12.0127 109.435 11.2762V7.59365C109.435 5.23175 108.368 4.26667 106.108 4.26667C103.975 4.26667 102.781 5.33333 102.73 6.90794H104.254C104.305 6.12064 104.813 5.38413 106.108 5.38413C107.352 5.38413 107.962 5.99365 107.962 7.64444V8.05079C105.981 8.10159 104.584 8.27937 103.619 8.7873ZM107.962 9.34603C107.962 11.5302 106.565 12.3429 105.422 12.3429C104.457 12.3429 103.848 11.8349 103.848 10.946C103.848 10.4889 104.025 10.1079 104.356 9.82857C104.914 9.37143 106.057 9.26984 107.962 9.14286V9.34603ZM100.19 2.4127H98.5397V0.787302H100.165V2.4127H100.19ZM95.5682 13.4095H94.0444V0.0507937H95.5682V13.4095ZM98.5905 13.4095V4.52064H100.114V13.4095H98.5905Z" fill="black"/>
<path d="M72 23.0857L62.9587 32.127V62.9587L72 72V23.0857Z" fill="#FFD022"/>
<path d="M39.8729 9.04126L24.457 24.4571L30.8316 30.8317L52.6475 9.04126H39.8729Z" fill="#54616C"/>
<path d="M62.9587 19.3524L41.1428 41.1429L47.5428 47.5429L62.9587 32.127V19.3524Z" fill="#63A2BC"/>
<path d="M48.8889 0L39.873 9.04127H52.6477L61.6635 0H48.8889Z" fill="#402746"/>
<path d="M48.8889 0H33.2698H0L9.04127 9.04127H39.873L48.8889 0Z" fill="#C75A88"/>
<path d="M65.6 0L62.9588 2.64127L56.5588 9.04127L32.8127 32.8127L39.1873 39.1873L62.9588 15.4159L69.3334 9.04127L72 6.4V0H65.6Z" fill="#EF7945"/>
<path d="M72 10.3111L62.9587 19.3524V32.127L72 23.0857V10.3111Z" fill="#5C9431"/>
</g>
<defs>
<clipPath id="clip0_5_689">
<rect width="174.781" height="72" fill="white"/>
</clipPath>
</defs>
</svg>
